<?xml version="1.0" encoding="UTF-8" standalone="no"?>
<!-- Generated by IcoMoon.io -->

<svg
   xmlns:dc="http://purl.org/dc/elements/1.1/"
   xmlns:cc="http://creativecommons.org/ns#"
   xmlns:rdf="http://www.w3.org/1999/02/22-rdf-syntax-ns#"
   xmlns:svg="http://www.w3.org/2000/svg"
   xmlns="http://www.w3.org/2000/svg"
   xmlns:sodipodi="http://sodipodi.sourceforge.net/DTD/sodipodi-0.dtd"
   xmlns:inkscape="http://www.inkscape.org/namespaces/inkscape"
   version="1.1"
   width="384"
   height="448"
   viewBox="0 0 384 448"
   id="svg2"
   inkscape:version="0.91 r13725"
   sodipodi:docname="bars.svg">
  <metadata
     id="metadata11">
    <rdf:RDF>
      <cc:Work
         rdf:about="">
        <dc:format>image/svg+xml</dc:format>
        <dc:type
           rdf:resource="http://purl.org/dc/dcmitype/StillImage" />
      </cc:Work>
    </rdf:RDF>
  </metadata>
  <defs
     id="defs9" />
  <sodipodi:namedview
     pagecolor="#ffffff"
     bordercolor="#666666"
     borderopacity="1"
     objecttolerance="10"
     gridtolerance="10"
     guidetolerance="10"
     inkscape:pageopacity="0"
     inkscape:pageshadow="2"
     inkscape:window-width="1920"
     inkscape:window-height="1057"
     id="namedview7"
     showgrid="false"
     inkscape:zoom="0.52678571"
     inkscape:cx="192"
     inkscape:cy="224"
     inkscape:window-x="-8"
     inkscape:window-y="-5"
     inkscape:window-maximized="1"
     inkscape:current-layer="svg2" />
  <g
     id="icomoon-ignore" />
  <path
     d="M384 336v32q0 6.5-4.75 11.25t-11.25 4.75h-352q-6.5 0-11.25-4.75t-4.75-11.25v-32q0-6.5 4.75-11.25t11.25-4.75h352q6.5 0 11.25 4.75t4.75 11.25zM384 208v32q0 6.5-4.75 11.25t-11.25 4.75h-352q-6.5 0-11.25-4.75t-4.75-11.25v-32q0-6.5 4.75-11.25t11.25-4.75h352q6.5 0 11.25 4.75t4.75 11.25zM384 80v32q0 6.5-4.75 11.25t-11.25 4.75h-352q-6.5 0-11.25-4.75t-4.75-11.25v-32q0-6.5 4.75-11.25t11.25-4.75h352q6.5 0 11.25 4.75t4.75 11.25z"
     id="path5"
     style="fill:#ffffff;fill-opacity:1" />
</svg>
