<?xml version="1.0" encoding="utf-8"?>
<!-- Generator: Adobe Illustrator 19.1.1, SVG Export Plug-In . SVG Version: 6.00 Build 0)  -->
<svg version="1.1" id="Layer_1" xmlns="http://www.w3.org/2000/svg" xmlns:xlink="http://www.w3.org/1999/xlink" x="0px" y="0px"
	 viewBox="0 0 224 17" style="enable-background:new 0 0 224 17;" xml:space="preserve">
<style type="text/css">
	.st0{fill:#EBE6BF;}
</style>
<g>
	<path class="st0" d="M0,8.5C0,3.6,3.8,0,8.6,0C12.5,0,15,2,15,4c0,1.2-0.8,2-1.8,2c-1.1,0-1.9-0.7-1.9-1.8c0-0.3,0.1-0.6,0.2-0.8
		C11,3,10.1,2.6,8.6,2.6c-3.2,0-5.6,2.4-5.6,5.9c0,3.3,2.3,5.9,5.8,5.9c1.9,0,3.5-0.9,4.7-2.2l1.9,1.9c-1.6,1.8-4,2.8-6.6,2.8
		C3.6,17,0,13.6,0,8.5z"/>
	<path class="st0" d="M17.1,8.5c0-4.8,3.5-8.5,8.5-8.5c5,0,8.4,3.7,8.4,8.5c0,4.8-3.5,8.5-8.5,8.5C20.4,17,17.1,13.3,17.1,8.5z
		 M31,8.5c0-3.4-2.3-5.9-5.5-5.9c-3.2,0-5.5,2.4-5.5,5.9c0,3.4,2.3,5.9,5.5,5.9C28.7,14.4,31,12,31,8.5z"/>
	<path class="st0" d="M40.6,5.4v8.8h2v2.5H36v-2.5h1.9V2.8H36V0.3h4.3l8.1,10.3V2.8h-2V0.3h6.6v2.5h-1.8v13.9l-1.5,0.1L40.6,5.4z"/>
	<path class="st0" d="M57.9,14.2h2V2.7h-3v2.6h-2.7v-5h14.3v5h-2.7V2.7h-3v11.5h2v2.5h-6.9V14.2z"/>
	<path class="st0" d="M70,14.2h1.9V2.8H70V0.3h12.3V5h-2.7V2.8h-4.9v4.4h5v2.4h-5v4.6h4.9V12h2.7v4.7H70V14.2z"/>
	<path class="st0" d="M89,5.4v8.8h2v2.5h-6.7v-2.5h1.9V2.8h-1.9V0.3h4.3l8.1,10.3V2.8h-2V0.3h6.6v2.5h-1.8v13.9L98,16.8L89,5.4z"/>
	<path class="st0" d="M106.3,14.2h2V2.7h-3v2.6h-2.7v-5h14.3v5h-2.7V2.7h-3v11.5h2v2.5h-6.9V14.2z"/>
	<path class="st0" d="M123.9,14.2h1.9V2.8h-1.9V0.3h6.9v2.5h-2.2v11.4h4.5v-2.3h2.7v4.8h-11.9V14.2z"/>
	<path class="st0" d="M137.6,14.2h2V2.8h-2V0.3h6.8v2.5h-2v11.4h2v2.5h-6.8V14.2z"/>
	<path class="st0" d="M146.3,14.2h1.9V2.8h-1.9V0.3h6.6c4,0,6,1.8,6,4.3c0,1.9-1.2,3.1-2.8,3.7c2,0.6,3.3,1.8,3.3,3.8
		c0,2.7-2.2,4.6-6.2,4.6h-6.8V14.2z M152.9,7.3c2,0,3.1-0.9,3.1-2.3c0-1.4-1.2-2.2-3.1-2.2H151v4.5H152.9z M153.2,14.3
		c1.9,0,3.2-0.8,3.2-2.4c0-1.5-1.2-2.4-3.3-2.4H151v4.7H153.2z"/>
	<path class="st0" d="M161.2,14.2h1.9V2.8h-1.9V0.3h6.4c3.8,0,6.5,1.6,6.5,5c0,2.1-1.3,3.7-3.1,4.5l2.5,4.5h1.9v2.5h-3.8l-3.3-6.2
		c-0.3,0-0.7,0.1-1,0.1c-0.5,0-1,0-1.3,0v3.7h2v2.5h-6.7V14.2z M171.1,5.4c0-1.7-1.4-2.5-3.7-2.5h-1.5v5.3c0.3,0,0.7,0.1,1.6,0.1
		C169.6,8.1,171.1,7.1,171.1,5.4z"/>
	<path class="st0" d="M176.1,14.2h1.4l4.1-11.4h-1.8V0.3h9.3v2.5h-1.8l4.1,11.4h1.4v2.5h-6.3v-2.5h1.9l-0.9-2.7h-6.1l-0.9,2.7h2v2.5
		h-6.3V14.2z M186.7,9.2l-2.3-6.5l-2.3,6.5H186.7z"/>
	<path class="st0" d="M194.1,14.2h1.9V2.8h-1.9V0.3h6.4c3.8,0,6.5,1.6,6.5,5c0,2.1-1.3,3.7-3.1,4.5l2.5,4.5h1.9v2.5h-3.8l-3.3-6.2
		c-0.3,0-0.7,0.1-1,0.1c-0.5,0-1,0-1.3,0v3.7h2v2.5h-6.7V14.2z M204,5.4c0-1.7-1.4-2.5-3.7-2.5h-1.5v5.3c0.3,0,0.7,0.1,1.6,0.1
		C202.5,8.1,204,7.1,204,5.4z"/>
	<path class="st0" d="M212.7,14.2h2.1v-3.7l-4.7-7.6h-1.6V0.3h6.2v2.5h-1.5l3,5.3l3-5.3h-1.5V0.3h6.2v2.5h-1.6l-4.7,7.6v3.7h2.1v2.5
		h-7V14.2z"/>
</g>
</svg>
