<?xml version="1.0" encoding="UTF-8" standalone="no"?>
<!-- Generated by IcoMoon.io -->

<svg
   xmlns:dc="http://purl.org/dc/elements/1.1/"
   xmlns:cc="http://creativecommons.org/ns#"
   xmlns:rdf="http://www.w3.org/1999/02/22-rdf-syntax-ns#"
   xmlns:svg="http://www.w3.org/2000/svg"
   xmlns="http://www.w3.org/2000/svg"
   xmlns:sodipodi="http://sodipodi.sourceforge.net/DTD/sodipodi-0.dtd"
   xmlns:inkscape="http://www.inkscape.org/namespaces/inkscape"
   version="1.1"
   width="416"
   height="448"
   viewBox="0 0 416 448"
   id="svg2"
   inkscape:version="0.91 r13725"
   sodipodi:docname="search.svg">
  <metadata
     id="metadata11">
    <rdf:RDF>
      <cc:Work
         rdf:about="">
        <dc:format>image/svg+xml</dc:format>
        <dc:type
           rdf:resource="http://purl.org/dc/dcmitype/StillImage" />
      </cc:Work>
    </rdf:RDF>
  </metadata>
  <defs
     id="defs9" />
  <sodipodi:namedview
     pagecolor="#ffffff"
     bordercolor="#666666"
     borderopacity="1"
     objecttolerance="10"
     gridtolerance="10"
     guidetolerance="10"
     inkscape:pageopacity="0"
     inkscape:pageshadow="2"
     inkscape:window-width="1920"
     inkscape:window-height="1057"
     id="namedview7"
     showgrid="false"
     inkscape:zoom="0.52678571"
     inkscape:cx="208"
     inkscape:cy="224"
     inkscape:window-x="-8"
     inkscape:window-y="-5"
     inkscape:window-maximized="1"
     inkscape:current-layer="svg2" />
  <g
     id="icomoon-ignore" />
  <path
     d="M288 208q0-46.25-32.875-79.125t-79.125-32.875-79.125 32.875-32.875 79.125 32.875 79.125 79.125 32.875 79.125-32.875 32.875-79.125zM416 416q0 13-9.5 22.5t-22.5 9.5q-13.5 0-22.5-9.5l-85.75-85.5q-44.75 31-99.75 31-35.75 0-68.375-13.875t-56.25-37.5-37.5-56.25-13.875-68.375 13.875-68.375 37.5-56.25 56.25-37.5 68.375-13.875 68.375 13.875 56.25 37.5 37.5 56.25 13.875 68.375q0 55-31 99.75l85.75 85.75q9.25 9.25 9.25 22.5z"
     id="path5"
     style="fill:#363942;fill-opacity:1" />
</svg>
